<?xml version="1.0" standalone="no"?>
<!DOCTYPE svg PUBLIC "-//W3C//DTD SVG 20010904//EN"
 "http://www.w3.org/TR/2001/REC-SVG-20010904/DTD/svg10.dtd">
<svg version="1.0" xmlns="http://www.w3.org/2000/svg"
 width="512.000000pt" height="512.000000pt" viewBox="0 0 512.000000 512.000000"
 preserveAspectRatio="xMidYMid meet">
<metadata>
Created by potrace 1.14, written by Peter Selinger 2001-2017
</metadata>
<g transform="translate(0.000000,512.000000) scale(0.100000,-0.100000)"
fill="#000000" stroke="none">
<path d="M0 2560 l0 -2560 2560 0 2560 0 0 2560 0 2560 -2560 0 -2560 0 0
-2560z m1930 971 c254 -54 421 -181 499 -379 53 -134 64 -353 25 -497 -48
-179 -164 -319 -324 -394 -140 -65 -258 -81 -602 -81 l-248 0 0 -375 0 -375
-325 0 -325 0 0 1053 c0 580 3 1057 7 1061 13 13 1230 0 1293 -13z m1985 9
c286 -25 476 -139 574 -343 95 -198 96 -466 1 -662 -85 -177 -222 -278 -450
-331 -48 -12 -146 -17 -367 -21 l-303 -5 0 -374 0 -374 -325 0 -325 0 0 1060
0 1060 543 0 c298 0 592 -5 652 -10z"/>
<path d="M1280 2865 l0 -185 223 0 c211 0 225 1 267 23 97 48 122 203 47 286
-50 54 -84 61 -319 61 l-218 0 0 -185z"/>
<path d="M3370 2866 l0 -186 218 0 c206 0 220 1 262 23 64 32 84 65 88 146 5
83 -19 137 -75 172 -37 23 -47 24 -265 27 l-228 3 0 -185z"/>
</g>
</svg>
